<svg xmlns="http://www.w3.org/2000/svg" xmlns:xlink="http://www.w3.org/1999/xlink" width="115" height="115" viewBox="0 0 115 115">
  <defs>
    <filter id="Rectangle_12" x="0" y="0" width="115" height="115" filterUnits="userSpaceOnUse">
      <feOffset input="SourceAlpha"/>
      <feGaussianBlur stdDeviation="5" result="blur"/>
      <feFlood flood-opacity="0.161"/>
      <feComposite operator="in" in2="blur"/>
      <feComposite in="SourceGraphic"/>
    </filter>
    <filter id="Rectangle_10" x="22" y="22" width="70" height="78" filterUnits="userSpaceOnUse">
      <feOffset dy="3" input="SourceAlpha"/>
      <feGaussianBlur stdDeviation="3" result="blur-2"/>
      <feFlood flood-opacity="0.161"/>
      <feComposite operator="in" in2="blur-2"/>
      <feComposite in="SourceGraphic"/>
    </filter>
    <filter id="Union_3" x="22" y="22" width="70.001" height="46.132" filterUnits="userSpaceOnUse">
      <feOffset dy="3" input="SourceAlpha"/>
      <feGaussianBlur stdDeviation="3" result="blur-3"/>
      <feFlood flood-opacity="0.161"/>
      <feComposite operator="in" in2="blur-3"/>
      <feComposite in="SourceGraphic"/>
    </filter>
    <filter id="Ellipse_3" x="41.999" y="32.982" width="30" height="30" filterUnits="userSpaceOnUse">
      <feOffset dy="3" input="SourceAlpha"/>
      <feGaussianBlur stdDeviation="3" result="blur-4"/>
      <feFlood flood-opacity="0.161"/>
      <feComposite operator="in" in2="blur-4"/>
      <feComposite in="SourceGraphic"/>
    </filter>
    <filter id="Ellipse_4" x="41.999" y="53.281" width="30" height="30" filterUnits="userSpaceOnUse">
      <feOffset dy="3" input="SourceAlpha"/>
      <feGaussianBlur stdDeviation="3" result="blur-5"/>
      <feFlood flood-opacity="0.161"/>
      <feComposite operator="in" in2="blur-5"/>
      <feComposite in="SourceGraphic"/>
    </filter>
  </defs>
  <g id="Group_30" data-name="Group 30" transform="translate(-273 -153)">
    <g transform="matrix(1, 0, 0, 1, 273, 153)" filter="url(#Rectangle_12)">
      <rect id="Rectangle_12-2" data-name="Rectangle 12" width="85" height="85" rx="15" transform="translate(15 15)" fill="#fff"/>
    </g>
    <g transform="matrix(1, 0, 0, 1, 273, 153)" filter="url(#Rectangle_10)">
      <g id="Rectangle_10-2" data-name="Rectangle 10" transform="translate(33 30)" fill="#00b1ab" stroke="#00b1ab" stroke-width="2">
        <rect width="48" height="56" rx="8" stroke="none"/>
        <rect x="-1" y="-1" width="50" height="58" rx="9" fill="none"/>
      </g>
    </g>
    <g transform="matrix(1, 0, 0, 1, 273, 153)" filter="url(#Union_3)">
      <g id="Union_3-2" data-name="Union 3" transform="translate(2023 30)" fill="#00b9b2">
        <path d="M -1963.47607421875 25.13170051574707 C -1964.49169921875 25.13170051574707 -1965.248168945312 25.10799026489258 -1965.724609375 25.06121063232422 C -1965.824096679688 25.05143547058105 -1965.915405273438 25.04059028625488 -1965.999755859375 25.02707290649414 C -1966.084228515625 25.04059028625488 -1966.175537109375 25.05143737792969 -1966.275268554688 25.06122016906738 C -1966.751953125 25.10799026489258 -1967.508544921875 25.13170051574707 -1968.524169921875 25.13170051574707 C -1969.902709960938 25.13170051574707 -1971.757568359375 25.08724021911621 -1974.037353515625 24.99955940246582 C -1977.480102539062 24.86626052856445 -1981.340698242188 22.07147026062012 -1985.512329101562 16.69281959533691 C -1988.455200195312 12.89835643768311 -1990.559204101562 9.066805839538574 -1990.844604492188 8.539107322692871 C -1990.943725585938 8.381563186645508 -1990.998901367188 8.197670936584473 -1991 8.006002426147461 C -1991.038818359375 3.400570631027222 -1988.560424804688 1.184138178825378 -1986.47412109375 0.1355502605438232 C -1984.283203125 -0.9657197594642639 -1982.100341796875 -0.9990697503089905 -1982.008544921875 -0.9999497532844543 L -1982.003662109375 -0.9999997615814209 L -1981.998901367188 -0.9999997615814209 L -1965.999633789062 -0.9999997615814209 L -1950.000366210938 -0.9999997615814209 L -1949.99560546875 -0.9999997615814209 L -1949.99072265625 -0.9999497532844543 C -1949.89892578125 -0.9990697503089905 -1947.716064453125 -0.9657197594642639 -1945.525146484375 0.1355602592229843 C -1943.442016601562 1.182695865631104 -1940.9677734375 3.394610404968262 -1941.000122070312 7.986929416656494 C -1940.9970703125 8.181462287902832 -1941.050659179688 8.371325492858887 -1941.152465820312 8.534903526306152 C -1941.488525390625 9.157453536987305 -1943.551879882812 12.90765953063965 -1946.487670898438 16.69281959533691 C -1950.6591796875 22.07147026062012 -1954.519653320312 24.86626052856445 -1957.961791992188 24.99954986572266 C -1960.242553710938 25.08724021911621 -1962.097778320312 25.13170051574707 -1963.47607421875 25.13170051574707 Z" stroke="none"/>
        <path d="M -1963.47607421875 24.13170051574707 C -1962.290771484375 24.13170051574707 -1960.552001953125 24.0984001159668 -1958.00048828125 24.00029945373535 C -1950.470092773438 23.70870018005371 -1942.268432617188 8.500500679016113 -1942.006591796875 8.011799812316895 C -1942.002075195312 8.008200645446777 -1941.999389648438 8.004600524902344 -1942.000244140625 8.000100135803223 C -1941.930908203125 0.07740025967359543 -1950.000366210938 2.578735234237683e-07 -1950.000366210938 2.578735234237683e-07 L -1965.999633789062 2.578735234237683e-07 L -1965.999633789062 8.000100135803223 L -1965.999633789062 24.00029945373535 C -1965.999633789062 24.00029945373535 -1965.8466796875 24.13170051574707 -1963.47607421875 24.13170051574707 M -1968.524169921875 24.13170051574707 C -1966.153564453125 24.13170051574707 -1965.999633789062 24.00029945373535 -1965.999633789062 24.00029945373535 L -1965.999633789062 8.000100135803223 L -1965.999633789062 2.578735234237683e-07 L -1981.998901367188 2.578735234237683e-07 C -1981.998901367188 2.578735234237683e-07 -1990.068359375 0.07740025967359543 -1990 8.000100135803223 C -1990 8.004600524902344 -1989.998168945312 8.008200645446777 -1989.992797851562 8.011799812316895 C -1989.731689453125 8.500500679016113 -1981.530029296875 23.70870018005371 -1973.998901367188 24.00029945373535 C -1971.4482421875 24.0984001159668 -1969.70849609375 24.13170051574707 -1968.524169921875 24.13170051574707 M -1963.47607421875 26.13170051574707 C -1964.524169921875 26.13170051574707 -1965.313598632812 26.10637092590332 -1965.822265625 26.05643081665039 C -1965.880493164062 26.05071830749512 -1965.939697265625 26.04442405700684 -1965.999877929688 26.03698348999023 C -1966.06005859375 26.04442977905273 -1966.119384765625 26.05072593688965 -1966.177612304688 26.05644035339355 C -1966.686645507812 26.10638046264648 -1967.47607421875 26.13170051574707 -1968.524169921875 26.13170051574707 C -1969.915405273438 26.13170051574707 -1971.783203125 26.08699035644531 -1974.075805664062 25.99881935119629 C -1976.2353515625 25.91521072387695 -1978.528564453125 24.90825080871582 -1980.892333984375 23.00588989257812 C -1982.638793945312 21.60037040710449 -1984.458984375 19.68254089355469 -1986.302490234375 17.30567932128906 C -1989.240234375 13.51792144775391 -1991.358154296875 9.688957214355469 -1991.708618164062 9.043612480163574 C -1991.893798828125 8.73841381072998 -1991.996826171875 8.385237693786621 -1991.999877929688 8.017360687255859 L -1991.999877929688 8.017360687255859 C -1992.01904296875 5.802470207214355 -1991.495239257812 3.878540277481079 -1990.443237304688 2.299010276794434 C -1989.587768554688 1.014540314674377 -1988.403442382812 -0.01395974215120077 -1986.923217773438 -0.7579297423362732 C -1984.567626953125 -1.941919684410095 -1982.272094726562 -1.997469782829285 -1982.01806640625 -1.99990975856781 L -1982.008544921875 -1.999999761581421 L -1981.998901367188 -1.999999761581421 L -1967.999633789062 -1.999999761581421 L -1965.999633789062 -1.999999761581421 L -1950.000366210938 -1.999999761581421 L -1949.99072265625 -1.999999761581421 L -1949.981201171875 -1.99990975856781 C -1949.727172851562 -1.997469782829285 -1947.431518554688 -1.941919684410095 -1945.076049804688 -0.7579097151756287 C -1943.595947265625 -0.01390974223613739 -1942.411743164062 1.014630198478699 -1941.556396484375 2.299150228500366 C -1940.511108398438 3.868703603744507 -1939.987548828125 5.778159618377686 -1940 7.975337505340576 C -1939.994750976562 8.352644920349121 -1940.095947265625 8.720842361450195 -1940.288818359375 9.03998851776123 C -1940.679077148438 9.760489463806152 -1942.759643554688 13.51787281036377 -1945.697387695312 17.30567932128906 C -1947.540893554688 19.68255043029785 -1949.361083984375 21.60036087036133 -1951.107421875 23.005859375 C -1953.471069335938 24.90822982788086 -1955.764282226562 25.91520118713379 -1957.923095703125 25.99880027770996 C -1960.216918945312 26.08699035644531 -1962.0849609375 26.13170051574707 -1963.47607421875 26.13170051574707 Z" stroke="none" fill="#00b9b3"/>
      </g>
    </g>
    <g id="Group_9" data-name="Group 9" transform="translate(106 28.85)">
      <g id="Rectangle_9" data-name="Rectangle 9" transform="translate(219.998 165.132)" fill="none" stroke="#f7f7f8" stroke-width="2">
        <rect width="8" height="28.3" rx="4" stroke="none"/>
        <rect x="-1" y="-1" width="10" height="30.3" rx="5" fill="none"/>
      </g>
      <g transform="matrix(1, 0, 0, 1, 167, 124.15)" filter="url(#Ellipse_3)">
        <g id="Ellipse_3-2" data-name="Ellipse 3" transform="translate(53 40.98)" fill="#fff" stroke="#fff" stroke-width="2">
          <circle cx="4" cy="4" r="4" stroke="none"/>
          <circle cx="4" cy="4" r="5" fill="none"/>
        </g>
      </g>
      <g transform="matrix(1, 0, 0, 1, 167, 124.15)" filter="url(#Ellipse_4)">
        <g id="Ellipse_4-2" data-name="Ellipse 4" transform="translate(53 61.28)" fill="#fff" stroke="#fff" stroke-width="2">
          <circle cx="4" cy="4" r="4" stroke="none"/>
          <circle cx="4" cy="4" r="5" fill="none"/>
        </g>
      </g>
    </g>
  </g>
</svg>
