<svg xmlns="http://www.w3.org/2000/svg" viewBox="0 0 243 243"><defs><style>.cls-1{fill:#333;}.cls-2{fill:#fff;}</style></defs><g id="Layer_2" data-name="Layer 2"><g id="Layer_1-2" data-name="Layer 1"><rect class="cls-1" width="243" height="243" rx="25"/><polygon class="cls-2" points="139 40 139 85 103 85 103 40 94 40 94 85 94 94 94 121 103 121 103 94 139 94 139 121 148 121 148 94 148 85 148 40 139 40"/><rect class="cls-2" x="220" y="130" width="9" height="81"/><path class="cls-2" d="M202,40c-27,0-27,27-27,27V94s0,27,27,27,27-27,27-27V67S229,40,202,40Zm0,72c-18,0-18-18-18-18V67s0-18,18-18,18,18,18,18V94S220,112,202,112Z"/><polygon class="cls-2" points="184 130 143.5 202.9 103 130 94 130 94 211 103 211 103 146.2 139 211 148 211 184 146.2 184 211 193 211 193 130 184 130"/></g></g></svg>