<svg xmlns="http://www.w3.org/2000/svg" viewBox="0 0 634 243"><defs><style>.cls-1{fill:#333;}.cls-2{fill:#fff;}</style></defs><g id="Layer_2" data-name="Layer 2"><g id="Layer_1-2" data-name="Layer 1"><rect class="cls-1" width="243" height="243" rx="25"/><polygon class="cls-2" points="139 40 139 85 103 85 103 40 94 40 94 85 94 94 94 121 103 121 103 94 139 94 139 121 148 121 148 94 148 85 148 40 139 40"/><rect class="cls-2" x="220" y="130" width="9" height="81"/><polygon class="cls-1" points="472 130 449.5 130 449.5 130 440.5 130 440.5 130 418 130 418 139 440.5 139 440.5 211 449.5 211 449.5 139 472 139 472 130"/><polygon class="cls-1" points="553 139 553 130 508 130 499 130 499 139 499 202 499 211 508 211 553 211 553 202 508 202 508 184 544 184 544 175 508 175 508 139 553 139"/><path class="cls-2" d="M202,40c-27,0-27,27-27,27V94s0,27,27,27,27-27,27-27V67S229,40,202,40Zm0,72c-18,0-18-18-18-18V67s0-18,18-18,18,18,18,18V94S220,112,202,112Z"/><path class="cls-1" d="M301,40V94s0,18-18,18-18-18-18-18V40h-9V94s0,27,27,27,27-27,27-27V40Z"/><path class="cls-1" d="M382,130v54s0,18-18,18-18-18-18-18V130h-9v54s0,27,27,27,27-27,27-27V130Z"/><path class="cls-1" d="M445,49h27V40H443.61v.07C438.12,40.51,418,43.69,418,67c0,27,27,27,27,27h9s9,0,9,9-9,9-9,9H418v9h36s18,0,18-18-18-18-18-18h-9s-18,0-18-18C427,49.31,444.37,49,445,49Z"/><path class="cls-1" d="M607,139h27v-9H605.61v.07c-5.49.44-25.61,3.62-25.61,26.93,0,27,27,27,27,27h9s9,0,9,9-9,9-9,9H580v9h36s18,0,18-18-18-18-18-18h-9s-18,0-18-18C589,139.31,606.37,139,607,139Z"/><path class="cls-1" d="M379.51,89.5C385.53,85.83,391,79.15,391,67c0-27-27-27-27-27H337v81h9V94h18c18,0,18,18,18,18v9h9v-9C391,99.85,385.53,93.17,379.51,89.5ZM346,85V49h18s18,0,18,18-18,18-18,18Z"/><polygon class="cls-1" points="301 130 301 194.8 265 130 256 130 256 211 265 211 265 146.2 301 211 310 211 310 130 301 130"/><polygon class="cls-2" points="184 130 143.5 202.9 103 130 94 130 94 211 103 211 103 146.2 139 211 148 211 184 146.2 184 211 193 211 193 130 184 130"/></g></g></svg>