<svg xmlns="http://www.w3.org/2000/svg" xmlns:xlink="http://www.w3.org/1999/xlink" width="85" height="85" viewBox="0 0 85 85">
  <defs>
    <linearGradient id="linear-gradient" x1="0.5" x2="0.106" y2="0.978" gradientUnits="objectBoundingBox">
      <stop offset="0" stop-color="#00b9b2"/>
      <stop offset="1" stop-color="#005d59"/>
    </linearGradient>
  </defs>
  <g id="Group_53" data-name="Group 53" transform="translate(-550 -40)">
    <rect id="Rectangle_33" data-name="Rectangle 33" width="85" height="85" rx="15" transform="translate(550 40)" fill="url(#linear-gradient)"/>
    <path id="Path_25" data-name="Path 25" d="M-58.012-27.613a7.688,7.688,0,0,1,2.852.508,6.247,6.247,0,0,1,2.2,1.443,6.338,6.338,0,0,1,1.409,2.281,8.678,8.678,0,0,1,.495,3.01,8.721,8.721,0,0,1-.495,3.023,6.477,6.477,0,0,1-1.409,2.3,6.157,6.157,0,0,1-2.2,1.457,7.688,7.688,0,0,1-2.852.508,7.781,7.781,0,0,1-2.872-.508,6.144,6.144,0,0,1-2.206-1.457,6.557,6.557,0,0,1-1.416-2.3,8.613,8.613,0,0,1-.5-3.023,8.57,8.57,0,0,1,.5-3.01,6.416,6.416,0,0,1,1.416-2.281A6.234,6.234,0,0,1-60.884-27.1,7.781,7.781,0,0,1-58.012-27.613Zm0,11.915a2.986,2.986,0,0,0,2.6-1.182,5.926,5.926,0,0,0,.845-3.463,5.994,5.994,0,0,0-.845-3.477,2.972,2.972,0,0,0-2.6-1.2,3.032,3.032,0,0,0-2.646,1.2,5.925,5.925,0,0,0-.859,3.47,5.858,5.858,0,0,0,.859,3.456A3.045,3.045,0,0,0-58.012-15.7Zm12.726-9.964a9.182,9.182,0,0,1,.9-.79,5.687,5.687,0,0,1,1-.618,5.622,5.622,0,0,1,1.134-.4,5.68,5.68,0,0,1,1.319-.144,5.055,5.055,0,0,1,2.048.392,4.046,4.046,0,0,1,1.491,1.1,4.833,4.833,0,0,1,.907,1.69,7.184,7.184,0,0,1,.309,2.165v8.974h-3.395v-8.974a3.036,3.036,0,0,0-.591-2,2.212,2.212,0,0,0-1.8-.708,3.535,3.535,0,0,0-1.649.4,5.91,5.91,0,0,0-1.457,1.086v10.2h-3.395v-14.1h2.075a.834.834,0,0,1,.866.618Zm-3.175,35.706V-1.5l-1.223-.192a1.444,1.444,0,0,1-.639-.282.7.7,0,0,1-.241-.57V-3.932h2.1v-.454a6.617,6.617,0,0,1,.426-2.4A5.11,5.11,0,0,1-46.743-8.7a6.066,6.066,0,0,1,2.192-1.271,9.547,9.547,0,0,1,3.127-.46,11.416,11.416,0,0,1,1.175.062,5.354,5.354,0,0,1,1.038.2l-.11,1.759a.387.387,0,0,1-.344.378,4.171,4.171,0,0,1-.783.062,9.049,9.049,0,0,0-2.233.234,3.722,3.722,0,0,0-1.457.694,2.554,2.554,0,0,0-.8,1.154,4.93,4.93,0,0,0-.241,1.615v.344h8.741V10.045H-39.83V-1.513h-5.236V10.045ZM-62.341,22.03a.906.906,0,0,1-.289.309.748.748,0,0,1-.385.089,1.212,1.212,0,0,1-.529-.137q-.282-.137-.653-.309a5.979,5.979,0,0,0-.845-.309,4.048,4.048,0,0,0-1.12-.137,2.578,2.578,0,0,0-1.574.426,1.326,1.326,0,0,0-.57,1.113,1.062,1.062,0,0,0,.3.763,2.657,2.657,0,0,0,.783.543,7.667,7.667,0,0,0,1.106.419q.618.186,1.257.405t1.257.5a4.408,4.408,0,0,1,1.106.715,3.319,3.319,0,0,1,.783,1.038,3.291,3.291,0,0,1,.3,1.457,4.756,4.756,0,0,1-.364,1.876,4.053,4.053,0,0,1-1.079,1.484,5.088,5.088,0,0,1-1.766.976,7.668,7.668,0,0,1-2.426.35,7.677,7.677,0,0,1-1.422-.131,8.4,8.4,0,0,1-1.333-.364,7.377,7.377,0,0,1-1.182-.55,5.737,5.737,0,0,1-.955-.687l.783-1.292a1.108,1.108,0,0,1,.357-.357,1,1,0,0,1,.522-.124,1.1,1.1,0,0,1,.6.179q.282.179.653.385a5.835,5.835,0,0,0,.873.385,3.84,3.84,0,0,0,1.271.179,3.3,3.3,0,0,0,1.038-.144,2.2,2.2,0,0,0,.715-.378,1.419,1.419,0,0,0,.412-.543,1.627,1.627,0,0,0,.131-.639,1.14,1.14,0,0,0-.3-.811,2.586,2.586,0,0,0-.783-.55,7.566,7.566,0,0,0-1.113-.419q-.625-.186-1.278-.405a11.824,11.824,0,0,1-1.278-.515,4.356,4.356,0,0,1-1.113-.749,3.39,3.39,0,0,1-.783-1.113,3.884,3.884,0,0,1-.3-1.594,4.062,4.062,0,0,1,.344-1.649,3.868,3.868,0,0,1,1.01-1.367,5.017,5.017,0,0,1,1.663-.935,6.927,6.927,0,0,1,2.3-.35,7.047,7.047,0,0,1,2.652.481,5.991,5.991,0,0,1,1.993,1.264ZM-54.164,33.6a3.7,3.7,0,0,1-2.824-1.038,4,4,0,0,1-.983-2.865V21.824h-1.443a.662.662,0,0,1-.467-.179.7.7,0,0,1-.192-.536V19.763l2.268-.371.715-3.848a.754.754,0,0,1,.261-.426.777.777,0,0,1,.495-.151h1.759v4.439h3.766v2.419h-3.766v7.641a1.519,1.519,0,0,0,.323,1.031,1.114,1.114,0,0,0,.886.371,1.6,1.6,0,0,0,.529-.076,2.912,2.912,0,0,0,.371-.158q.158-.082.282-.158a.471.471,0,0,1,.247-.076.388.388,0,0,1,.247.076,1.147,1.147,0,0,1,.206.227l1.017,1.649a5.139,5.139,0,0,1-1.7.935A6.343,6.343,0,0,1-54.164,33.6Zm11.654-14.54a7.688,7.688,0,0,1,2.852.508,6.247,6.247,0,0,1,2.2,1.443,6.338,6.338,0,0,1,1.409,2.281,8.678,8.678,0,0,1,.495,3.01,8.72,8.72,0,0,1-.495,3.023,6.477,6.477,0,0,1-1.409,2.3,6.157,6.157,0,0,1-2.2,1.457,7.688,7.688,0,0,1-2.852.508,7.781,7.781,0,0,1-2.872-.508,6.144,6.144,0,0,1-2.206-1.457A6.557,6.557,0,0,1-49,29.328a8.612,8.612,0,0,1-.5-3.023,8.57,8.57,0,0,1,.5-3.01,6.416,6.416,0,0,1,1.416-2.281,6.235,6.235,0,0,1,2.206-1.443A7.781,7.781,0,0,1-42.51,19.062Zm0,11.915a2.986,2.986,0,0,0,2.6-1.182,5.926,5.926,0,0,0,.845-3.463,5.994,5.994,0,0,0-.845-3.477,2.972,2.972,0,0,0-2.6-1.2,3.032,3.032,0,0,0-2.646,1.2,5.925,5.925,0,0,0-.859,3.47,5.858,5.858,0,0,0,.859,3.456A3.045,3.045,0,0,0-42.51,30.977Z" transform="translate(655.912 79.613)" fill="#efefef"/>
  </g>
</svg>
